<svg width="17" height="32" viewBox="0 0 17 32" fill="none" xmlns="http://www.w3.org/2000/svg">
<path d="M16.5722 15.9407C16.9521 15.5666 16.9568 14.9553 16.5827 14.5754L2.5135 0.288031C2.1394 -0.0918694 1.52816 -0.0965729 1.14826 0.277526C0.76836 0.651625 0.763656 1.26286 1.13776 1.64276L15.207 15.9301C15.5811 16.31 16.1923 16.3147 16.5722 15.9407Z" fill="black"/>
<path d="M16.5722 15.0799C16.9521 15.454 16.9568 16.0653 16.5827 16.4452L2.5135 30.7325C2.1394 31.1124 1.52816 31.1172 1.14826 30.7431C0.76836 30.369 0.763656 29.7577 1.13776 29.3778L15.207 15.0904C15.5811 14.7105 16.1923 14.7058 16.5722 15.0799Z" fill="black"/>
</svg>
