<?xml version="1.0" standalone="no"?>
<!DOCTYPE svg PUBLIC "-//W3C//DTD SVG 20010904//EN"
 "http://www.w3.org/TR/2001/REC-SVG-20010904/DTD/svg10.dtd">
<svg version="1.0" xmlns="http://www.w3.org/2000/svg"
 width="1600.000000pt" height="1600.000000pt" viewBox="0 0 1600.000000 1600.000000"
 preserveAspectRatio="xMidYMid meet">
<metadata>
Created by potrace 1.14, written by Peter Selinger 2001-2017
</metadata>
<g transform="translate(0.000000,1600.000000) scale(0.100000,-0.100000)"
fill="#000000" stroke="none">
<path d="M9975 15994 c6 -2 60 -19 120 -38 61 -19 124 -39 140 -45 91 -33 241
-86 248 -87 4 -1 8 -2 10 -4 1 -1 9 -3 17 -5 8 -1 56 -17 107 -34 50 -17 102
-33 115 -35 13 -3 23 -5 23 -6 0 -1 44 -3 99 -5 94 -4 147 -15 191 -38 11 -6
22 -12 25 -12 12 -2 79 -41 180 -106 60 -38 114 -69 120 -69 5 0 10 -4 10 -10
0 -5 9 -10 20 -10 11 0 20 -5 20 -12 0 -6 3 -9 6 -5 3 3 22 -3 42 -13 39 -20
156 -73 232 -106 70 -29 233 -114 251 -130 8 -8 19 -14 24 -14 21 0 215 -168
215 -186 0 -8 -38 5 -109 39 -84 39 -106 40 -106 5 l1 -26 -76 38 c-41 22 -88
48 -103 58 -34 23 -71 76 -81 114 -6 28 -14 32 -81 42 -73 12 -136 28 -180 46
-99 40 -222 94 -231 101 -6 5 -40 24 -75 43 -35 18 -92 49 -126 69 -77 44
-280 140 -303 143 -3 0 -23 6 -45 12 -73 21 -175 40 -175 32 0 -10 126 -101
184 -132 28 -15 80 -42 116 -59 36 -17 124 -60 197 -95 188 -91 244 -127 344
-221 l66 -63 64 0 c61 0 67 -3 136 -53 39 -28 176 -122 305 -208 378 -254 503
-351 663 -514 61 -62 119 -128 129 -146 l19 -33 -49 29 c-41 24 -142 99 -219
164 -12 10 -27 20 -35 23 -8 4 -33 14 -55 23 -39 16 -38 14 32 -52 80 -76 180
-166 233 -209 19 -16 51 -43 70 -61 19 -17 46 -41 60 -53 14 -11 45 -39 70
-60 25 -21 56 -48 69 -59 12 -11 57 -51 99 -88 42 -37 98 -88 126 -113 79 -70
344 -337 416 -419 129 -146 330 -421 330 -451 0 -5 4 -10 8 -10 4 0 13 -12 19
-27 7 -16 25 -50 41 -78 15 -27 32 -59 36 -70 6 -18 5 -18 -7 -5 -20 22 -159
197 -257 325 -183 238 -360 431 -495 542 -62 50 -214 151 -278 183 -27 14 -58
38 -70 54 -95 123 -221 256 -244 256 -7 0 -13 4 -13 10 0 13 -142 80 -169 80
-48 0 -4 -67 78 -120 31 -19 53 -42 60 -61 15 -43 -11 -37 -79 18 -8 6 -42 32
-75 56 -33 24 -121 88 -195 143 -74 54 -154 113 -178 129 -24 17 -73 51 -110
77 -188 134 -439 299 -552 363 -178 103 -251 144 -305 170 -33 16 -63 34 -66
38 -3 5 -9 8 -13 8 -3 -1 -33 12 -66 28 -33 16 -60 26 -60 23 0 -4 -4 -2 -8 3
-4 6 -43 26 -87 45 -44 18 -104 44 -132 56 -29 13 -65 26 -80 30 -46 11 13
-29 255 -174 29 -18 55 -32 58 -32 2 0 62 -31 132 -69 128 -69 171 -93 272
-150 30 -17 85 -47 123 -67 37 -20 67 -40 67 -45 0 -5 5 -9 12 -9 30 0 198
-151 198 -177 0 -7 4 -13 9 -13 5 0 11 -8 14 -17 2 -10 8 -26 12 -35 5 -12
-25 1 -91 38 -55 31 -124 70 -154 87 -30 17 -88 50 -128 74 -41 24 -78 43 -83
43 -5 0 -9 5 -9 10 0 6 -4 10 -9 10 -4 0 -51 25 -104 55 -52 30 -100 55 -106
55 -6 0 -11 5 -11 11 0 5 -4 8 -9 5 -5 -4 -11 -3 -13 2 -4 10 -236 123 -333
162 -44 17 -89 36 -100 40 -23 10 -191 58 -223 65 -12 2 -26 6 -31 10 -18 11
-20 -12 -2 -27 18 -15 128 -71 133 -68 4 2 101 -36 163 -65 48 -22 115 -78
115 -96 0 -11 -27 -5 -125 24 -85 26 -295 129 -388 191 -16 11 -51 21 -81 23
-67 4 -206 43 -226 63 -10 10 -167 89 -216 108 -66 26 -129 32 -179 17 l-40
-12 40 -17 c22 -9 65 -26 95 -36 130 -44 315 -135 378 -185 l43 -34 -26 -17
c-26 -17 -26 -17 -6 -35 11 -11 24 -19 30 -19 5 0 11 -4 13 -8 2 -4 32 -28 68
-52 36 -25 67 -48 68 -52 2 -5 8 -8 14 -8 5 0 28 -13 51 -29 23 -15 85 -54
137 -85 52 -31 102 -61 110 -66 33 -21 146 -85 155 -89 6 -2 17 -9 25 -16 8
-7 40 -26 70 -42 30 -16 107 -61 170 -99 63 -38 119 -71 124 -73 41 -17 352
-234 404 -281 12 -11 22 -19 22 -16 0 2 26 -19 58 -47 83 -74 262 -259 262
-271 0 -8 -3 -8 -8 0 -4 6 -36 30 -71 55 -35 24 -114 79 -175 121 -264 183
-569 360 -756 438 -41 18 -88 38 -105 45 -59 26 -192 67 -285 90 -82 19 -119
27 -210 41 -8 1 -54 5 -102 8 -89 5 -114 -5 -63 -24 14 -5 69 -35 121 -65 53
-30 100 -55 105 -55 5 0 9 -4 9 -10 0 -5 5 -10 10 -10 12 0 267 -155 293 -178
9 -8 17 -11 17 -6 0 5 4 4 8 -2 4 -6 70 -53 147 -104 244 -163 496 -351 705
-524 46 -39 95 -80 109 -91 13 -11 40 -35 60 -54 l36 -33 -35 20 c-19 11 -57
32 -85 47 -27 15 -54 31 -60 35 -5 4 -26 17 -45 28 -37 20 -86 51 -362 223
-92 57 -176 109 -186 114 -9 6 -74 44 -142 86 -181 111 -324 194 -329 190 -2
-1 -7 1 -10 6 -19 26 -546 281 -558 270 -6 -7 163 -163 237 -218 41 -31 122
-86 180 -122 58 -37 110 -71 117 -77 7 -5 14 -10 16 -10 4 0 180 -105 217
-130 8 -5 32 -21 53 -35 21 -14 40 -25 43 -25 3 0 22 -12 42 -27 20 -16 41
-31 47 -35 112 -80 218 -177 302 -275 57 -66 48 -62 -117 52 -215 150 -355
213 -489 219 -36 1 -77 8 -91 16 -31 16 -140 103 -200 160 -60 57 -132 117
-178 147 -41 29 -122 66 -122 56 0 -3 29 -34 65 -69 36 -35 65 -68 65 -74 0
-14 -71 16 -165 70 -105 61 -156 80 -208 79 l-42 0 24 -17 c31 -23 242 -152
247 -152 2 0 28 -16 58 -35 30 -19 60 -35 66 -35 5 0 10 -5 10 -11 0 -5 4 -8
9 -5 5 4 11 3 13 -2 3 -8 135 -92 144 -92 8 0 351 -228 366 -243 7 -8 20 -18
29 -23 19 -11 85 -62 109 -84 8 -8 31 -28 50 -44 58 -47 144 -131 206 -202 69
-77 82 -96 59 -88 -8 3 -15 9 -15 13 0 11 -66 51 -99 61 -37 10 -41 -1 -8 -23
13 -9 60 -46 103 -84 44 -37 99 -84 123 -103 23 -19 55 -46 70 -60 15 -14 60
-54 101 -90 186 -164 464 -437 610 -599 41 -46 82 -91 90 -100 8 -9 40 -46 70
-81 30 -36 58 -66 63 -68 4 -2 7 -8 7 -12 0 -5 12 -22 26 -37 14 -15 46 -55
71 -88 24 -33 51 -68 59 -78 64 -78 264 -371 264 -387 0 -5 4 -10 8 -10 5 0
16 -15 25 -32 9 -18 28 -51 42 -73 14 -22 30 -51 37 -65 7 -14 27 -49 45 -77
18 -29 31 -53 28 -53 -3 0 5 -17 18 -37 39 -63 186 -374 193 -407 2 -10 7 -23
12 -30 9 -10 47 -105 47 -116 0 -3 4 -11 8 -17 5 -7 10 -21 13 -30 2 -10 27
-85 55 -168 27 -82 59 -184 70 -225 26 -94 51 -190 54 -210 2 -8 4 -15 5 -15
1 0 3 -9 5 -20 6 -37 15 -79 34 -170 10 -49 22 -110 25 -135 3 -25 8 -56 10
-70 12 -68 27 -178 31 -224 3 -28 8 -67 10 -87 3 -20 8 -74 10 -120 3 -46 7
-94 9 -106 4 -18 0 -23 -15 -23 -13 0 -20 7 -21 23 -2 26 -5 49 -8 60 -1 4 -3
12 -4 17 -1 10 -25 30 -37 30 -9 0 -2 -181 8 -191 5 -5 21 -4 41 3 44 17 57 1
59 -70 3 -106 2 -557 -2 -652 -8 -170 -20 -365 -30 -458 -13 -139 -17 -170
-21 -197 -11 -71 -24 -163 -29 -215 -5 -43 -25 -163 -35 -210 -6 -25 -12 -58
-14 -75 -2 -16 -6 -37 -10 -46 -4 -9 -6 -20 -5 -25 1 -5 0 -16 -4 -24 -3 -8
-8 -28 -10 -45 -7 -42 -15 -80 -34 -150 -8 -33 -16 -67 -18 -75 -7 -34 -38
-149 -56 -209 -10 -34 -21 -73 -23 -85 -10 -49 -141 -419 -182 -511 -10 -22
-19 -45 -20 -51 -2 -14 -17 -45 -85 -189 -29 -60 -53 -112 -53 -115 -5 -21
-147 -283 -214 -394 -23 -37 -42 -72 -42 -76 0 -5 -3 -10 -8 -12 -4 -1 -32
-41 -63 -88 -84 -131 -236 -335 -328 -442 -11 -13 -29 -34 -41 -48 -126 -148
-338 -360 -495 -495 -38 -33 -72 -62 -75 -66 -3 -3 -22 -18 -43 -33 -26 -20
-41 -25 -50 -19 -32 26 -62 23 -102 -12 -64 -56 -80 -69 -110 -90 -15 -11 -39
-29 -54 -41 -40 -31 -161 -114 -167 -114 -3 0 -25 -13 -49 -30 -39 -27 -333
-184 -345 -185 -4 0 -89 -36 -225 -95 -28 -12 -257 -91 -275 -95 -8 -2 -60
-17 -116 -33 -55 -17 -114 -33 -130 -36 -16 -3 -49 -10 -74 -16 -25 -7 -54
-13 -65 -16 -11 -2 -31 -6 -45 -9 -56 -12 -76 -16 -100 -20 -14 -2 -41 -6 -60
-10 -19 -4 -46 -8 -60 -10 -14 -2 -38 -5 -55 -9 -81 -15 -288 -36 -396 -41
-37 -1 -72 -6 -78 -9 -6 -4 -11 -1 -11 6 0 8 -3 9 -8 3 -4 -7 -91 -10 -237 -9
-291 2 -419 11 -635 45 -163 26 -159 25 -275 50 -55 12 -107 22 -115 23 -8 2
-25 6 -37 10 -12 4 -30 9 -40 11 -26 5 -119 31 -178 49 -27 8 -52 15 -55 15
-7 0 -239 80 -265 91 -11 5 -56 22 -100 39 -96 35 -236 95 -287 121 -20 10
-39 16 -42 13 -3 -4 -6 -1 -6 5 0 7 -6 12 -14 12 -8 0 -40 14 -70 31 -31 16
-56 27 -56 24 0 -3 -6 -1 -13 5 -6 5 -59 34 -117 64 -135 69 -184 97 -321 176
-111 65 -131 76 -159 94 -8 6 -50 10 -93 10 -65 1 -80 4 -89 19 -31 56 -147
153 -223 186 -96 42 -95 42 -95 27 0 -21 38 -54 70 -61 36 -8 63 -39 66 -75 2
-34 -12 -32 -66 10 -19 14 -63 48 -98 74 -62 47 -62 48 -59 92 4 49 -5 63 -78
119 -21 17 -49 39 -61 50 -13 11 -36 30 -51 42 -15 12 -37 30 -48 40 -11 10
-33 29 -50 41 -117 91 -473 447 -533 534 -9 13 -24 31 -33 41 -9 10 -39 50
-66 87 -26 38 -51 69 -55 70 -4 0 -13 -12 -20 -27 -24 -51 -43 -41 -91 49 -25
46 -48 97 -52 113 -5 17 -9 33 -10 38 -2 4 -3 17 -4 30 -1 18 -10 25 -47 35
-87 23 -131 106 -158 297 -18 127 -29 170 -56 213 -19 31 -50 44 -50 20 0 -8
-6 -6 -17 5 -13 13 -17 37 -18 114 -1 84 -5 107 -30 163 -16 36 -35 73 -43 83
-8 9 -12 17 -9 17 3 0 -18 36 -48 80 -45 69 -95 162 -139 259 -6 13 -11 71
-11 127 0 57 -3 104 -7 104 -18 0 -48 48 -73 116 -18 50 -37 82 -58 100 l-32
27 -12 -29 c-20 -47 -15 -63 36 -117 27 -29 52 -62 56 -75 8 -28 18 -90 17
-114 0 -10 4 -20 9 -23 5 -4 7 -10 5 -14 -5 -8 63 -324 89 -411 9 -30 17 -62
19 -70 8 -33 100 -297 116 -335 10 -22 31 -69 46 -105 33 -75 142 -295 177
-356 49 -88 161 -262 215 -338 31 -43 62 -86 67 -95 6 -9 12 -18 15 -21 3 -3
21 -25 40 -50 19 -25 37 -47 40 -50 3 -3 28 -32 55 -65 163 -196 390 -418 620
-606 44 -36 116 -92 160 -125 44 -32 84 -65 88 -71 4 -7 14 -13 20 -13 7 0 28
-13 47 -30 19 -16 40 -29 47 -30 6 0 13 -3 15 -7 5 -12 66 -53 78 -53 5 0 10
-3 10 -7 0 -5 30 -26 66 -48 36 -22 86 -54 112 -70 81 -52 123 -69 133 -54 5
8 9 22 9 32 0 9 6 17 13 17 6 0 116 -59 242 -131 364 -207 437 -247 555 -306
41 -21 77 -41 78 -45 2 -5 10 -8 18 -8 8 0 22 -4 32 -10 34 -19 171 -80 181
-80 5 0 29 -18 53 -41 23 -22 70 -60 103 -83 61 -44 235 -139 235 -129 0 3 6
1 13 -5 36 -29 193 -69 381 -97 21 -3 48 -8 60 -11 12 -2 37 -7 56 -9 108 -13
191 -36 260 -73 89 -48 86 -53 -25 -48 -90 4 -278 31 -296 42 -4 2 -20 6 -36
9 -15 2 -46 9 -68 14 -59 15 -138 33 -155 35 -8 2 -34 8 -56 14 -23 7 -54 14
-70 16 -52 8 -118 16 -153 20 -19 2 -42 12 -51 22 -30 35 -127 84 -172 87 -16
1 -28 4 -28 7 0 4 -222 3 -258 -2 -19 -2 -8 -51 18 -88 11 -15 20 -33 20 -39
0 -6 4 -11 10 -11 11 0 70 -98 70 -117 0 -29 -158 9 -289 70 -36 17 -68 31
-71 32 -3 0 -14 6 -25 12 -59 32 -163 56 -243 56 l-53 0 -87 87 c-97 97 -152
131 -202 125 -42 -6 -50 -14 -25 -28 11 -6 82 -52 157 -103 157 -106 231 -146
306 -164 28 -6 52 -16 52 -20 0 -32 151 -141 213 -154 7 -2 19 -6 27 -9 16 -6
209 -53 250 -60 48 -9 156 -49 200 -74 50 -29 102 -81 94 -94 -7 -13 -83 -10
-119 4 -17 7 -69 33 -116 59 -84 46 -161 69 -172 51 -10 -15 7 -31 63 -61 36
-20 56 -37 58 -51 2 -11 2 -21 0 -21 -2 0 -35 9 -73 20 -38 11 -76 20 -82 20
-22 0 -14 -30 15 -60 25 -27 132 -78 132 -63 0 4 5 2 12 -5 7 -7 20 -12 30
-12 42 0 144 -79 120 -93 -7 -5 -267 56 -377 88 -33 10 -60 17 -60 16 0 -5
-201 71 -212 80 -7 6 -13 9 -13 6 0 -5 -58 24 -175 87 -27 15 -93 54 -145 86
-226 142 -364 225 -435 263 -22 12 -43 26 -46 30 -3 5 -10 8 -15 8 -25 -2
-356 197 -443 265 -119 95 -270 244 -427 424 -27 30 -205 213 -396 405 -191
193 -360 364 -375 381 -54 60 -102 115 -130 151 -15 20 -33 41 -38 47 -10 10
-83 112 -133 183 -28 40 -28 43 3 43 15 0 28 -7 32 -17 8 -23 33 -53 44 -53
10 0 -16 71 -40 110 -15 26 -121 161 -132 170 -22 16 -103 132 -123 175 -20
41 -41 135 -31 135 4 0 68 -90 150 -210 33 -47 63 -86 67 -88 4 -2 8 -8 8 -13
0 -8 275 -406 289 -419 4 -3 20 -25 36 -50 16 -25 32 -47 35 -50 4 -3 33 -41
65 -85 33 -44 64 -85 70 -91 5 -7 26 -31 45 -55 197 -245 347 -403 540 -569
41 -36 81 -71 88 -78 40 -36 47 -33 48 25 1 55 14 76 43 70 14 -2 43 -54 76
-134 10 -24 22 -44 27 -44 50 -8 58 9 32 68 -9 21 -18 40 -18 43 -5 20 -69
103 -140 180 -52 57 -107 133 -122 169 -16 39 -18 71 -4 71 6 0 52 -42 103
-93 89 -91 109 -104 190 -121 21 -5 27 -3 27 11 0 31 -56 115 -120 183 -124
130 -155 178 -175 265 -11 47 -13 50 -46 52 -128 9 -202 75 -238 210 -6 23
-10 48 -9 55 2 9 -12 13 -47 14 -63 3 -95 35 -114 117 -12 56 -26 72 -37 42
-4 -8 -17 -15 -29 -15 -20 0 -27 10 -45 67 -21 65 -31 91 -64 166 -8 17 -14
35 -13 38 1 4 -5 15 -14 25 -14 17 -30 50 -30 64 0 3 -6 12 -13 20 -7 8 -26
43 -44 77 -57 112 -171 287 -334 513 -22 31 -44 14 -46 -35 -2 -39 -8 -55 -22
-55 -41 0 -137 205 -165 352 -13 64 -50 158 -64 163 -48 15 -217 248 -204 282
3 8 23 21 44 30 39 15 59 49 44 72 -10 17 -44 13 -75 -9 -31 -22 -60 -18 -61
9 0 9 -2 27 -4 41 -1 14 -6 52 -9 85 -16 158 -55 303 -116 422 l-41 81 25 26
c13 15 26 39 29 54 12 58 -11 293 -28 299 -28 8 -42 -32 -34 -97 6 -43 -1 -61
-22 -58 -15 2 -23 11 -25 28 -1 14 -12 61 -23 104 -12 44 -21 85 -21 92 0 13
127 60 137 50 4 -3 7 -16 9 -29 1 -12 3 -22 4 -22 1 0 3 -9 5 -20 4 -22 40
-55 60 -55 11 0 20 19 30 70 2 8 11 44 20 80 24 89 24 239 1 307 l-17 52 28
43 c15 24 30 50 32 58 5 24 6 122 1 125 -10 6 -1 262 14 400 5 45 22 157 30
195 3 14 7 41 10 60 2 19 7 42 10 50 3 8 7 26 10 40 2 14 18 93 35 175 18 83
34 164 37 180 2 17 7 38 10 47 4 13 1 16 -10 12 -9 -3 -16 -9 -16 -14 0 -4 -9
-17 -19 -29 -17 -20 -68 -138 -75 -174 -1 -6 -8 -38 -15 -69 -7 -32 -14 -70
-16 -85 -2 -16 -4 -28 -5 -28 -2 0 -7 -27 -13 -72 -21 -145 -67 -294 -112
-361 l-25 -36 5 80 c4 74 6 104 20 244 8 77 35 261 41 283 3 10 8 35 11 55 9
65 11 77 13 77 2 0 6 18 14 64 9 46 63 245 83 306 10 28 18 52 18 55 2 6 5 14
57 150 120 312 303 603 528 843 36 38 69 75 73 83 4 8 0 31 -12 56 -10 23 -17
47 -14 54 2 6 24 19 48 28 73 28 143 107 169 193 12 38 -34 16 -90 -43 l-52
-55 -29 17 c-61 35 -118 1 -233 -138 -45 -55 -90 -87 -90 -65 0 7 11 30 25 52
13 22 31 54 41 70 9 17 26 40 37 53 11 12 18 22 14 22 -6 0 6 16 101 125 97
112 245 250 401 375 24 19 52 42 61 50 9 8 45 37 81 65 74 57 63 48 171 145
74 67 177 180 164 180 -8 0 -94 -39 -236 -108 -127 -61 -266 -110 -330 -117
-19 -2 -35 -4 -35 -5 0 -1 -15 -3 -33 -6 -31 -4 -59 -24 -151 -114 -59 -56
-169 -197 -311 -397 -171 -239 -247 -330 -352 -419 -26 -22 -44 -20 -48 6 -5
36 3 54 43 98 88 95 97 124 40 120 -34 -3 -38 -1 -36 19 5 49 101 184 322 452
56 68 100 126 97 129 -9 9 -115 -67 -170 -121 -29 -29 -68 -72 -87 -97 -50
-65 -159 -229 -159 -240 0 -6 -4 -10 -10 -10 -5 0 -10 -4 -10 -10 0 -13 -103
-172 -155 -240 -49 -63 -74 -91 -130 -140 -30 -26 -41 -45 -43 -70 -8 -88 -45
-175 -88 -209 -37 -29 -43 -27 -38 17 5 40 12 77 14 77 1 0 3 11 5 25 2 14 14
52 26 85 13 33 24 65 26 70 1 6 16 49 33 97 16 49 28 103 26 123 -1 19 2 35 7
35 5 0 5 6 -1 13 -13 16 -7 26 40 61 46 34 81 91 137 216 45 103 99 190 118
190 6 0 13 5 15 10 2 6 16 11 32 13 36 3 44 -26 15 -51 -10 -9 -19 -22 -19
-29 0 -7 -4 -13 -10 -13 -5 0 -10 -4 -10 -10 0 -25 22 -5 62 58 64 97 75 116
76 126 0 5 4 12 9 15 5 3 21 26 34 51 180 320 323 530 425 625 119 110 126
114 160 80 23 -23 63 -34 65 -17 0 4 2 14 4 22 2 8 7 28 10 44 8 37 28 76 60
114 24 28 30 30 93 30 37 0 93 5 124 11 32 7 61 13 65 14 17 3 150 70 198 100
28 16 95 60 150 95 91 60 285 167 285 158 0 -2 20 2 45 10 25 7 45 11 45 8 0
-28 -40 -66 -115 -108 -89 -50 -125 -89 -125 -134 0 -22 1 -22 35 -8 19 8 35
13 35 11 0 -8 142 70 245 135 122 77 235 131 281 133 19 1 34 4 34 7 0 3 24 6
53 8 141 7 225 18 278 37 80 30 79 30 79 3 0 -15 -13 -37 -34 -56 -33 -30 -41
-54 -21 -60 21 -6 126 41 238 108 142 84 161 90 185 61 17 -21 62 -37 62 -23
0 4 9 8 21 9 12 1 51 12 87 24 37 11 72 22 77 23 80 19 330 161 423 242 64 56
165 160 222 229 52 63 199 280 190 280 -2 0 8 18 22 41 40 62 118 221 112 227
-5 5 41 2 81 -5 16 -2 21 6 32 52 41 178 35 394 -18 574 -44 152 -123 289
-233 405 -64 67 -76 85 -97 152 -24 76 -32 87 -108 134 -9 6 -18 13 -21 16
-12 13 -193 139 -200 139 -5 0 -15 6 -22 13 -28 29 -191 99 -287 124 -98 25
-101 25 -137 8 -30 -14 -63 -18 -163 -17 -116 0 -125 1 -132 20 -4 11 -35 39
-68 61 -45 31 -74 43 -113 47 -29 3 -55 7 -58 9 -3 2 -54 6 -115 11 -363 25
-611 -16 -899 -150 -43 -20 -91 -45 -106 -56 -15 -11 -30 -17 -34 -13 -3 3 -6
2 -6 -4 0 -5 -12 -15 -26 -22 -38 -17 -462 -302 -561 -377 -18 -14 -33 -21
-33 -17 0 4 -4 3 -8 -2 -4 -6 -81 -60 -172 -120 -91 -60 -199 -133 -240 -162
-82 -57 -81 -57 -126 -93 -18 -14 -46 -36 -64 -50 -17 -14 -41 -34 -54 -45
-12 -11 -39 -35 -60 -53 -20 -18 -39 -42 -41 -53 -2 -11 -13 -35 -25 -53 -11
-18 -20 -43 -20 -55 0 -11 -4 -21 -9 -21 -5 0 -16 -6 -23 -12 -7 -7 -60 -51
-118 -98 -178 -143 -387 -324 -614 -530 -94 -84 -554 -547 -616 -619 -30 -35
-74 -85 -96 -110 -23 -25 -70 -80 -104 -121 -34 -41 -78 -95 -98 -119 -63 -75
-224 -291 -297 -396 -38 -55 -73 -102 -77 -103 -5 -2 -6 -8 -2 -13 3 -5 2 -9
-3 -9 -4 0 -21 -23 -38 -51 -16 -28 -41 -64 -53 -80 -13 -16 -20 -29 -16 -29
4 0 -2 -10 -13 -22 -11 -13 -30 -41 -42 -63 -11 -22 -32 -58 -46 -80 -14 -22
-28 -46 -32 -54 -3 -8 -30 -56 -58 -105 -43 -76 -206 -403 -235 -471 -5 -11
-23 -51 -40 -90 -18 -38 -33 -74 -34 -80 -4 -14 -16 -45 -31 -80 -52 -119
-214 -601 -230 -683 -2 -9 -4 -17 -5 -17 -2 0 -2 -1 -23 -87 -17 -70 -10 -87
28 -62 l28 18 -7 -29 c-10 -48 -19 -72 -53 -147 -14 -31 -39 -71 -55 -90 -39
-43 -47 -66 -54 -146 -3 -37 -8 -78 -10 -92 -3 -14 -7 -46 -9 -71 -2 -26 -6
-64 -9 -85 -12 -83 -18 -131 -21 -179 -2 -27 -4 -50 -5 -50 -1 0 -3 -13 -4
-30 -17 -181 -21 -270 -19 -515 1 -257 3 -316 16 -400 3 -14 8 -47 12 -73 8
-53 17 -55 21 -5 11 150 15 209 19 243 2 22 7 69 10 105 3 36 7 81 9 100 3 19
7 71 11 115 3 44 8 91 10 105 2 14 6 52 10 85 4 32 8 66 10 75 3 16 13 92 21
150 9 76 15 116 19 140 3 14 7 39 9 55 6 35 34 191 39 220 3 11 8 38 12 60 5
22 9 48 10 58 2 9 3 18 4 20 2 1 5 13 7 26 2 14 11 54 20 90 9 37 17 74 19 84
2 10 7 27 10 37 3 10 8 29 10 42 2 13 23 89 47 171 31 106 48 149 60 153 22 7
87 85 93 110 2 11 13 51 25 89 11 39 23 84 26 100 12 66 40 128 73 157 20 17
37 26 42 21 6 -6 -5 -48 -26 -104 -19 -52 -35 -100 -35 -107 0 -7 -4 -20 -10
-30 -5 -9 -25 -69 -45 -132 -20 -63 -43 -133 -50 -155 -17 -50 -104 -354 -109
-380 -2 -11 -14 -58 -26 -105 -13 -47 -24 -94 -25 -105 -2 -11 -11 -51 -20
-90 -9 -38 -18 -77 -20 -85 -2 -8 -6 -26 -9 -40 -7 -31 -15 -75 -21 -115 -3
-16 -7 -41 -10 -55 -3 -14 -8 -41 -11 -60 -2 -19 -9 -60 -14 -90 -16 -94 -28
-185 -45 -360 -31 -308 -26 -928 10 -1205 3 -22 7 -60 10 -85 2 -25 7 -61 10
-80 2 -19 7 -57 10 -85 3 -27 8 -59 10 -70 3 -11 7 -38 11 -60 3 -22 8 -51 10
-65 3 -14 6 -36 8 -50 7 -44 16 -92 37 -190 11 -52 22 -106 24 -120 4 -32 67
-301 101 -434 14 -55 27 -108 29 -116 8 -41 38 -146 43 -157 4 -6 27 -33 52
-60 58 -62 84 -100 98 -142 15 -44 15 -94 0 -109 -14 -14 -7 -22 19 -26 10 -2
26 -16 36 -33 17 -29 17 -31 -5 -58 -33 -42 -32 -65 6 -147 55 -119 160 -395
224 -593 9 -27 18 -52 22 -55 3 -3 6 -13 8 -22 1 -9 9 -30 17 -45 8 -15 15
-32 15 -36 0 -10 29 -74 81 -181 40 -81 119 -205 146 -228 14 -11 15 -9 8 21
-4 18 -8 39 -9 45 -10 57 -46 143 -131 316 -60 124 -91 210 -98 283 -2 20 -1
37 4 37 25 0 109 -159 182 -345 71 -180 118 -285 129 -285 4 0 8 -6 8 -12 0
-7 22 -38 50 -68 l49 -55 1 50 c0 45 -19 144 -37 185 -3 8 -7 20 -8 25 -2 6
-32 71 -68 145 -70 145 -85 198 -81 277 3 57 41 156 58 150 16 -5 64 -102 75
-152 1 -3 17 -38 36 -80 42 -93 93 -159 111 -144 21 17 9 70 -35 154 -44 86
-53 118 -41 150 7 18 10 17 44 -20 21 -22 45 -53 53 -70 9 -16 22 -35 29 -43
8 -7 14 -16 14 -20 0 -26 141 -142 173 -142 20 0 -151 481 -258 725 -46 106
-164 425 -171 465 -3 13 -9 29 -14 35 -4 5 -8 12 -7 15 1 5 -39 159 -50 190
-3 8 -7 29 -9 45 -2 17 -6 41 -9 55 -3 14 -8 40 -11 59 -3 18 -8 43 -10 55 -3
11 -7 89 -10 171 l-5 150 19 -40 c11 -22 34 -78 52 -125 18 -47 37 -94 41
-105 13 -29 130 -383 134 -404 2 -10 13 -48 24 -86 12 -37 23 -79 27 -94 6
-31 9 -41 17 -61 3 -8 15 -46 27 -85 29 -96 82 -203 126 -253 20 -24 39 -41
41 -39 2 2 -5 24 -15 48 -18 44 -20 73 -9 103 6 16 39 23 35 9 0 -5 2 -15 5
-23 3 -8 16 -44 27 -80 30 -93 66 -163 106 -207 l35 -38 -6 70 c-4 64 -11 110
-15 110 -1 0 -4 13 -6 30 -3 16 -11 33 -17 37 -7 4 -9 8 -5 8 4 0 -4 30 -19
67 -14 38 -26 73 -28 78 -1 6 -8 24 -14 40 -32 76 -49 128 -55 170 -2 11 -4
20 -5 20 -6 0 -3 125 4 155 7 33 9 29 39 -75 18 -60 68 -194 111 -297 68 -160
83 -188 101 -188 15 0 24 8 28 25 11 43 34 28 70 -47 36 -77 87 -170 97 -178
3 -3 16 -25 29 -50 14 -25 31 -53 39 -62 8 -10 11 -18 8 -18 -3 0 7 -28 23
-63 17 -34 30 -70 30 -79 0 -10 21 -41 46 -69 60 -67 99 -130 161 -254 90
-179 119 -224 187 -288 38 -36 133 -93 142 -85 5 5 -77 141 -90 150 -7 5 -7 8
-1 8 6 0 6 3 0 8 -10 6 -56 78 -227 350 -77 122 -74 116 -157 276 -69 133
-126 264 -160 372 l-23 71 26 37 c28 42 27 52 -12 150 -16 39 -33 80 -37 91
-33 82 -57 245 -37 245 28 0 103 -116 119 -183 23 -99 27 -123 37 -222 8 -72
23 -108 102 -238 46 -75 84 -140 84 -143 0 -3 9 -18 19 -33 26 -37 164 -313
164 -328 0 -7 4 -13 9 -13 4 0 8 -8 8 -18 0 -10 4 -22 9 -27 4 -6 13 -23 19
-40 72 -208 94 -259 121 -284 38 -34 131 -160 131 -177 0 -8 4 -14 8 -14 4 0
16 -20 26 -45 11 -25 22 -45 27 -45 4 0 10 -14 14 -30 7 -34 34 -63 149 -165
134 -118 201 -192 256 -285 40 -67 86 -178 77 -186 -8 -8 -43 24 -215 193 -86
84 -159 153 -164 153 -11 0 57 -109 105 -168 34 -41 81 -96 175 -201 33 -36
122 -168 122 -179 0 -12 29 -24 41 -16 5 3 9 11 9 18 0 8 7 19 15 26 13 11 23
5 62 -36 165 -174 297 -304 309 -304 2 0 17 -12 32 -28 15 -15 77 -64 137
-109 61 -46 115 -87 121 -91 5 -5 21 -15 35 -22 13 -7 26 -16 29 -20 9 -12
214 -137 346 -211 136 -77 589 -299 608 -299 2 0 37 -15 78 -34 70 -32 348
-150 358 -152 3 0 18 -6 33 -12 16 -7 30 -12 31 -12 2 0 21 -8 42 -17 22 -9
41 -17 44 -18 13 -4 133 -52 179 -72 18 -9 39 -16 45 -17 6 -1 33 -12 60 -24
27 -12 54 -22 60 -22 7 0 17 -5 24 -12 7 -7 12 -8 12 -4 0 5 6 4 13 -2 6 -5
44 -22 82 -37 39 -14 79 -31 90 -36 44 -20 291 -120 302 -123 49 -10 13 -39
-38 -30 -40 6 -58 -8 -40 -30 6 -8 56 -28 111 -46 109 -36 166 -78 177 -131 6
-31 16 -42 48 -46 10 -2 54 -14 96 -27 62 -19 94 -23 165 -20 49 1 93 -1 99
-6 5 -4 24 -11 40 -14 17 -3 55 -12 85 -20 74 -20 109 -28 145 -31 17 -2 30
-4 30 -5 0 -1 11 -3 25 -5 14 -2 35 -6 47 -8 84 -20 507 -28 693 -13 58 5 128
10 155 12 28 1 50 4 50 4 0 1 11 3 25 5 57 5 313 44 415 61 17 3 41 7 55 10
14 2 59 11 100 19 41 8 89 17 105 20 41 8 125 24 155 31 14 3 36 7 50 10 14 2
63 13 110 24 47 11 102 22 124 26 21 3 46 7 55 9 9 2 81 17 161 34 141 29 204
46 225 61 12 9 67 24 78 22 4 -1 7 2 7 6 0 5 6 9 13 9 9 0 219 81 332 128 11
4 23 7 28 7 4 -1 7 3 7 8 0 6 6 10 13 10 7 0 33 10 57 21 24 12 49 22 54 24 6
1 42 16 79 33 38 18 71 32 73 32 16 0 530 261 669 340 316 178 681 417 901
589 39 31 86 67 104 81 18 14 38 30 44 35 6 6 34 28 61 50 128 102 308 267
480 440 152 152 204 208 320 340 28 32 56 63 62 70 7 7 30 16 51 20 45 7 45 8
116 148 56 110 92 162 159 232 l39 40 -65 -125 c-76 -149 -116 -222 -168 -312
-22 -36 -39 -71 -39 -76 0 -6 -3 -12 -8 -14 -4 -1 -27 -37 -51 -78 -39 -65
-121 -196 -143 -225 -190 -257 -330 -414 -479 -537 -57 -47 -65 -58 -63 -85 1
-17 7 -40 13 -51 9 -18 4 -25 -41 -57 -28 -21 -56 -42 -62 -46 -70 -59 -147
-114 -185 -134 -30 -15 -63 -44 -89 -79 -105 -139 -251 -250 -506 -386 -95
-50 -117 -62 -203 -111 -21 -12 -58 -33 -83 -47 -108 -60 -202 -134 -301 -237
-39 -40 -46 -51 -32 -56 9 -3 23 -5 32 -4 30 2 106 44 151 84 25 21 60 52 79
69 18 16 84 48 145 72 61 24 144 58 184 76 41 19 76 34 79 34 7 0 277 134 283
141 3 3 34 20 69 38 86 44 131 70 163 92 14 11 29 19 33 19 3 0 31 16 61 35
30 19 56 35 58 35 2 0 33 20 70 44 l66 43 118 -4 c64 -3 119 -6 120 -8 2 -2
-4 -20 -13 -39 -18 -39 -82 -99 -149 -143 -42 -28 -81 -69 -92 -97 -11 -29 20
-17 57 23 20 21 46 40 58 44 19 5 21 1 21 -39 0 -35 3 -44 18 -44 33 0 51 35
50 98 -1 64 5 82 28 82 20 0 92 34 195 92 116 65 172 85 240 83 l56 -2 11 44
c7 24 12 58 12 76 1 27 18 50 123 158 145 149 232 245 356 393 51 60 97 115
104 122 19 21 28 32 127 164 52 69 97 127 100 130 15 13 150 212 150 220 0 4
4 10 8 12 5 1 30 37 57 78 26 41 63 98 81 125 49 76 144 235 144 241 0 3 8 18
18 32 38 55 212 392 294 572 74 161 197 468 248 620 17 52 35 104 40 115 5 11
23 67 40 125 18 58 37 121 43 140 6 19 12 40 13 45 1 6 12 46 24 90 12 44 24
86 25 95 2 8 4 15 5 15 1 0 3 7 5 15 2 8 13 56 25 105 12 50 23 95 24 100 1 6
5 19 9 30 3 11 8 36 11 55 2 19 11 66 20 103 9 37 18 82 21 100 3 18 12 68 19
112 14 78 17 93 36 205 5 30 12 72 15 93 3 20 7 54 10 75 8 56 15 109 30 257
3 28 8 66 10 85 14 107 36 398 40 521 1 58 7 83 22 105 39 55 50 109 46 223
-5 140 -7 161 -13 161 -8 0 -4 196 6 275 13 112 9 408 -6 445 -1 3 -2 9 -1 13
1 5 -8 55 -19 113 -11 57 -22 119 -25 137 -9 55 -34 179 -55 262 -10 44 -21
91 -24 105 -10 46 -40 167 -57 230 -6 25 -13 54 -14 65 -2 11 -4 21 -5 23 -2
1 -4 7 -5 12 -1 6 -3 11 -5 13 -1 1 -3 9 -5 17 -1 8 -8 35 -15 60 -7 25 -14
52 -15 60 -2 8 -20 76 -40 150 -19 74 -37 144 -40 155 -2 11 -6 31 -10 45 -4
14 -7 31 -7 38 -1 6 -5 12 -10 12 -5 0 -7 4 -4 9 3 4 1 23 -4 42 -6 19 -26
104 -45 189 -19 85 -38 166 -41 179 -10 43 26 3 53 -60 15 -35 34 -61 49 -68
13 -6 24 -7 24 -2 0 4 -18 52 -41 107 -22 54 -43 110 -45 124 -3 13 -9 29 -13
35 -8 10 -41 96 -45 118 -2 6 -8 23 -13 37 -6 14 -27 68 -48 120 -47 121 -138
309 -184 380 -19 30 -63 89 -98 132 l-62 76 20 26 c33 42 31 64 -15 155 -85
169 -200 369 -267 468 -16 23 -29 45 -29 48 0 4 -8 17 -17 30 -10 12 -24 31
-30 41 -7 11 -24 35 -37 54 -14 19 -33 48 -42 65 -9 16 -23 35 -31 43 -8 8
-22 27 -31 41 -20 33 -223 304 -231 311 -4 3 -18 21 -31 40 -14 19 -32 42 -40
51 -8 9 -33 39 -55 67 -22 29 -43 52 -47 52 -5 0 -8 4 -8 10 0 9 -19 34 -55
74 -6 6 -46 54 -90 106 -44 52 -89 104 -100 116 -28 30 -97 113 -113 136 -11
15 -11 17 5 11 10 -3 24 -10 30 -16 7 -5 20 -6 29 -3 15 6 15 8 -2 27 -11 12
-55 51 -99 88 -44 36 -85 70 -91 76 -6 5 -40 35 -75 65 -104 89 -236 226 -274
283 -16 25 -21 26 -73 21 -50 -6 -66 -2 -129 26 -40 18 -71 35 -70 39 5 19
-44 120 -77 158 -32 37 -105 93 -126 99 -3 0 -30 12 -60 26 -78 35 -94 41
-102 40 -5 -1 -8 2 -8 8 0 6 -3 9 -7 8 -10 -4 -120 50 -147 71 -66 52 -135
152 -128 187 1 6 -28 19 -65 28 -146 37 -261 112 -316 207 -15 25 -33 46 -39
46 -150 9 -303 41 -393 84 -63 29 -139 95 -150 128 -9 29 -33 33 -82 15 -43
-17 -43 -17 -106 13 -104 50 -179 84 -232 105 -27 11 -61 25 -75 31 -14 6 -28
11 -32 12 -5 2 -9 3 -10 5 -2 1 -10 3 -18 5 -8 2 -60 19 -115 38 -124 43 -212
69 -340 102 -91 23 -118 25 -305 24 -113 0 -200 -2 -195 -5z"/>
<path d="M9022 14892 c-8 -6 3 -21 39 -53 61 -52 92 -68 137 -69 30 0 33 2 26
23 -8 26 -30 52 -66 78 -29 21 -115 34 -136 21z"/>
<path d="M10126 13479 c10 -16 54 -68 69 -80 74 -63 123 -97 190 -128 83 -40
125 -54 125 -42 0 11 -100 105 -135 127 -16 10 -32 21 -35 25 -3 3 -50 28
-105 54 -55 26 -104 50 -109 53 -5 3 -5 -1 0 -9z"/>
<path d="M10500 13120 c-14 -9 34 -51 107 -92 29 -16 56 -34 59 -39 10 -16 23
-9 21 11 -1 11 -4 20 -8 20 -4 0 -10 8 -13 18 -13 39 -136 100 -166 82z"/>
<path d="M10980 12765 c0 -18 43 -85 72 -112 49 -47 208 -113 208 -86 0 26
-89 94 -192 147 -21 10 -46 27 -57 37 -20 19 -31 24 -31 14z"/>
<path d="M11230 12464 c0 -14 68 -94 137 -161 71 -70 159 -134 211 -154 24 -9
25 -9 10 8 -8 10 -24 29 -34 42 -41 52 -161 169 -204 198 -60 41 -120 74 -120
67z"/>
<path d="M11567 12068 c-17 -14 -24 -5 102 -143 140 -155 430 -549 490 -667 8
-16 18 -28 23 -28 4 0 8 -4 8 -10 0 -5 19 -40 42 -77 22 -38 52 -88 66 -113
13 -25 36 -65 50 -90 97 -175 212 -400 204 -400 -4 0 -2 -4 3 -8 9 -6 88 -157
90 -172 1 -3 22 -50 49 -105 26 -55 57 -122 68 -150 29 -70 35 -73 32 -18 -6
138 -37 259 -105 411 -16 34 -29 65 -30 70 0 4 -6 14 -14 22 -7 8 -21 33 -32
55 -11 22 -31 60 -45 85 -42 74 -122 223 -137 255 -28 64 -51 118 -56 138 -2
4 -4 9 -5 12 -3 6 -7 22 -9 34 -1 9 -31 46 -108 134 -14 16 -65 83 -114 150
-49 67 -93 128 -99 135 -6 6 -7 12 -3 12 4 0 3 4 -3 8 -11 7 -123 179 -209
320 -43 71 -51 78 -68 64 -25 -20 -69 -4 -112 42 -47 50 -53 52 -78 34z"/>
<path d="M3905 11855 c-27 -14 -75 -70 -75 -88 0 -13 49 1 86 23 19 12 41 35
49 51 15 28 15 29 -7 29 -13 0 -36 -7 -53 -15z"/>
<path d="M4210 11219 c-82 -56 -149 -133 -162 -186 -5 -19 -3 -21 12 -13 34
18 197 185 203 208 7 29 1 28 -53 -9z"/>
<path d="M3679 10382 c-19 -15 -43 -34 -51 -43 -23 -23 -42 -92 -34 -124 6
-25 10 -22 71 60 36 48 65 91 65 95 0 5 3 15 6 24 9 24 -16 19 -57 -12z"/>
<path d="M12810 9959 c0 -3 18 -93 39 -200 36 -179 47 -242 56 -309 2 -14 4
-25 5 -25 0 0 3 -20 6 -45 2 -25 11 -94 19 -155 17 -126 27 -229 29 -297 0
-27 3 -48 6 -48 3 0 5 -19 4 -42 0 -24 3 -55 7 -70 5 -17 4 -28 -2 -28 -6 0
-7 -5 -3 -11 28 -47 21 -861 -11 -1169 -3 -30 -7 -73 -9 -95 -6 -67 -17 -148
-26 -190 -4 -22 -8 -47 -8 -55 0 -8 -3 -26 -6 -40 -3 -14 -7 -37 -8 -52 -1
-16 -6 -28 -11 -28 -4 0 -6 -4 -2 -9 4 -8 -17 -117 -42 -216 -3 -11 -6 -27 -7
-35 -1 -9 -5 -21 -9 -27 -14 -22 -20 -100 -8 -107 10 -6 16 20 12 47 0 4 3 7
9 7 5 0 10 7 10 15 0 8 4 23 10 33 9 17 48 139 56 177 2 11 6 31 9 44 2 13 7
56 11 95 3 39 10 76 15 82 5 6 32 14 59 18 27 4 52 11 55 16 3 5 -1 24 -9 42
-50 109 -64 250 -42 403 4 33 9 69 11 80 1 11 6 38 10 60 5 22 10 49 11 60 1
11 3 20 4 20 2 0 4 9 5 20 13 99 17 122 20 135 11 40 19 169 19 290 0 125 -11
367 -18 408 -3 14 -12 95 -21 192 -11 105 -71 425 -106 557 -11 43 -22 85 -24
93 -2 8 -4 17 -5 20 -1 3 -3 10 -4 15 -1 6 -5 17 -8 25 -3 8 -25 74 -48 145
-38 116 -59 171 -60 154z"/>
<path d="M13236 8152 c-12 -60 -26 -162 -31 -237 -10 -140 -15 -375 -7 -375 9
0 42 57 54 95 15 49 19 90 22 280 2 127 7 192 17 220 l15 40 -32 2 c-28 1 -33
-2 -38 -25z"/>
<path d="M13181 7463 c-17 -78 -17 -84 5 -99 18 -13 24 -12 46 6 24 18 29 42
19 91 -2 10 -42 49 -50 49 -5 0 -14 -21 -20 -47z"/>
<path d="M13170 7216 c0 -13 -9 -44 -20 -69 -23 -52 -18 -77 16 -77 17 0 24 6
24 19 0 11 4 22 8 25 7 4 8 39 2 56 -4 10 -7 26 -8 48 -3 30 -22 28 -22 -2z"/>
<path d="M12731 6378 c-62 -158 -72 -195 -75 -260 -2 -57 7 -69 18 -24 3 14
22 60 42 103 66 141 83 209 67 266 -8 26 -13 18 -52 -85z"/>
<path d="M15827 6313 c-2 -5 -2 -18 -1 -30 0 -13 -1 -23 -5 -23 -3 0 -7 -18
-9 -40 -2 -30 2 -41 17 -50 16 -8 22 -7 30 9 18 32 24 97 12 120 -11 21 -36
28 -44 14z"/>
<path d="M15768 6013 c-26 -60 -30 -82 -23 -113 6 -26 9 -29 26 -19 50 26 76
120 43 153 -22 23 -28 20 -46 -21z"/>
<path d="M12561 5933 c-23 -34 -31 -58 -31 -90 0 -39 2 -43 18 -34 58 35 87
101 66 155 -10 25 -20 19 -53 -31z"/>
<path d="M12443 5593 c-91 -130 -122 -264 -41 -175 35 38 101 212 86 227 -3 3
-23 -21 -45 -52z"/>
<path d="M1730 5246 c0 -14 3 -26 8 -26 4 0 16 -18 26 -40 10 -21 30 -49 44
-62 l25 -23 -7 30 c-11 47 -49 116 -73 133 -22 14 -23 13 -23 -12z"/>
<path d="M2133 5124 c4 -23 14 -59 24 -80 9 -21 16 -42 15 -45 -3 -13 87 -101
97 -95 16 10 -27 116 -71 171 -5 6 -22 28 -39 50 l-32 40 6 -41z"/>
<path d="M1878 5004 c-23 -45 50 -194 96 -194 13 0 13 5 2 38 -28 78 -88 174
-98 156z"/>
<path d="M2017 4714 c-14 -23 68 -164 95 -164 13 0 0 58 -20 88 -27 43 -69 85
-75 76z"/>
<path d="M2850 4213 c0 -9 12 -36 26 -61 16 -27 24 -53 21 -68 -4 -21 0 -26
24 -31 16 -3 32 -5 36 -5 5 0 27 -14 51 -30 l42 -29 -28 48 c-16 26 -35 59
-43 72 -21 36 -30 49 -67 87 -36 37 -62 44 -62 17z"/>
<path d="M2175 3985 c9 -46 83 -190 119 -231 43 -51 127 -136 131 -132 10 10
-127 259 -146 266 -5 2 -9 9 -9 15 -1 7 -23 35 -51 62 -49 49 -50 49 -44 20z"/>
<path d="M3016 3491 c-3 -5 0 -11 7 -14 6 -2 34 -40 62 -83 79 -126 152 -207
216 -244 l43 -24 -28 50 c-69 119 -143 209 -226 275 -58 46 -67 51 -74 40z"/>
<path d="M2632 3263 c49 -67 108 -143 124 -159 5 -6 30 -36 55 -65 58 -70 334
-347 428 -429 41 -36 80 -71 88 -78 7 -8 46 -41 86 -74 39 -33 92 -77 117 -98
25 -21 68 -56 95 -79 28 -23 48 -42 45 -44 -3 -1 14 -29 38 -61 23 -33 42 -64
42 -70 0 -12 101 -76 119 -76 6 0 11 -4 11 -10 0 -5 6 -10 14 -10 7 0 19 -7
26 -15 7 -9 15 -13 18 -11 2 3 24 -8 48 -24 23 -17 45 -30 49 -30 3 0 18 -8
33 -19 15 -10 81 -51 147 -91 66 -41 122 -77 125 -80 9 -11 101 -70 110 -70 4
0 10 -4 12 -8 5 -13 115 -71 122 -65 3 4 6 1 6 -5 0 -7 3 -11 8 -10 4 1 18 -2
32 -6 45 -12 131 -23 123 -15 -4 4 -96 60 -203 125 -107 65 -196 122 -198 126
-2 4 -9 8 -16 8 -26 0 -436 284 -436 302 0 5 -4 8 -9 8 -12 0 -71 52 -71 63 0
14 -66 110 -101 148 -37 40 -107 100 -159 139 -216 160 -301 236 -392 350
-117 147 -133 166 -195 227 -68 68 -123 103 -123 80 0 -7 11 -23 25 -35 29
-25 31 -35 11 -51 -11 -10 -27 4 -84 73 -39 47 -77 94 -84 103 -21 29 -100 93
-115 93 -8 0 4 -24 29 -57z"/>
<path d="M5603 3212 c-17 -11 -8 -54 14 -69 22 -17 35 -16 59 1 18 14 18 17 4
43 -16 29 -53 41 -77 25z"/>
<path d="M5864 3071 c4 -6 2 -11 -5 -11 -8 0 -9 -3 0 -13 6 -8 8 -16 5 -20 -3
-3 -1 -15 6 -26 9 -18 17 -20 49 -15 44 7 67 -3 116 -51 19 -18 48 -37 64 -43
25 -9 30 -8 34 9 7 27 -40 79 -99 110 -26 13 -50 24 -53 25 -3 0 -22 7 -42 16
-58 25 -82 32 -75 19z"/>
<path d="M4990 3014 c0 -39 37 -92 80 -114 43 -22 48 -17 42 35 -5 43 -48 91
-89 100 -31 6 -33 5 -33 -21z"/>
<path d="M2570 2885 c-1 -5 -2 -14 -1 -19 16 -83 8 -110 -31 -112 -39 -3 -40
-4 -33 -31 20 -83 101 -195 191 -265 29 -21 44 -6 44 43 0 76 39 56 91 -45 43
-83 73 -114 110 -112 43 3 44 11 11 54 -17 21 -65 106 -107 188 -45 88 -93
169 -118 196 -46 49 -122 102 -137 93 -4 -3 -11 1 -13 7 -3 7 -6 9 -7 3z"/>
<path d="M3810 2729 c1 -34 47 -97 100 -137 25 -18 52 -39 60 -45 30 -24 72
-49 76 -45 13 14 -90 131 -165 188 -18 14 -42 34 -52 44 -19 20 -19 19 -19 -5z"/>
<path d="M4105 2441 c23 -46 85 -99 134 -116 25 -8 46 -13 48 -11 4 4 -24 56
-53 101 -17 26 -80 55 -119 55 -25 0 -25 -1 -10 -29z"/>
<path d="M12755 2148 c-18 -8 -65 -66 -65 -80 0 -4 8 -5 18 -3 9 2 22 4 28 4
18 1 50 34 56 58 7 25 -9 34 -37 21z"/>
<path d="M12788 2024 c-56 -20 -118 -61 -179 -116 -37 -35 -38 -51 -1 -42 78
20 143 65 216 152 21 25 17 25 -36 6z"/>
<path d="M12439 1807 c-44 -30 -53 -77 -15 -77 31 0 66 35 66 66 0 34 -14 36
-51 11z"/>
<path d="M4780 1525 c0 -3 10 -21 23 -40 37 -57 147 -106 147 -66 0 25 -26 46
-99 81 -63 31 -71 34 -71 25z"/>
<path d="M6933 1123 c-30 -11 26 -55 87 -68 8 -2 16 -4 18 -5 1 -2 5 -3 10 -5
4 -1 14 -4 22 -8 16 -6 144 -46 170 -52 90 -23 308 -64 318 -60 6 2 12 0 12
-6 0 -7 14 -10 35 -7 19 2 35 1 35 -2 0 -3 15 -6 33 -7 17 -1 74 -3 125 -6 90
-4 119 9 35 16 -24 2 -46 6 -49 10 -4 4 -18 7 -30 7 -13 0 -63 10 -111 21 -48
12 -98 22 -110 22 -13 1 -23 5 -23 9 0 4 -9 8 -21 8 -11 0 -57 9 -102 21 -45
11 -90 23 -100 25 -10 2 -26 5 -35 8 -9 3 -28 8 -42 10 -14 3 -45 10 -70 17
-25 6 -52 12 -60 14 -16 4 -85 20 -110 26 -8 2 -17 7 -20 10 -3 3 -10 4 -17 2z"/>
<path d="M7243 892 c-16 -10 -35 -62 -29 -79 3 -7 15 -11 28 -9 13 3 26 5 29
5 12 2 49 43 49 55 0 10 -50 38 -64 36 -1 0 -6 -4 -13 -8z"/>
<path d="M6320 801 c0 -13 159 -87 247 -115 104 -33 134 -38 226 -41 59 -2 75
0 68 9 -5 6 -20 12 -33 14 -13 1 -59 16 -103 32 -44 17 -87 33 -95 35 -8 2
-49 15 -90 29 -103 34 -220 54 -220 37z"/>
<path d="M7870 776 c-34 -11 -62 -48 -54 -70 3 -7 22 -11 46 -9 25 1 66 -7
102 -22 72 -27 136 -37 136 -19 0 29 -36 56 -78 57 -42 2 -54 12 -56 51 -1 24
-45 29 -96 12z"/>
<path d="M8164 738 c0 -13 -4 -32 -7 -44 -7 -18 -1 -21 70 -33 82 -14 99 -18
136 -26 64 -15 217 -31 275 -29 102 4 142 13 142 35 0 19 -59 83 -68 74 -3 -3
-11 0 -18 6 -16 13 -98 19 -314 23 -96 2 -184 6 -195 10 -17 6 -21 3 -21 -16z"/>
<path d="M7110 615 c-23 -27 19 -78 76 -91 32 -7 255 -13 266 -7 4 2 2 17 -4
34 -14 42 -59 62 -148 66 -41 2 -99 5 -128 7 -31 1 -56 -2 -62 -9z"/>
<path d="M7670 511 c0 -9 145 -105 185 -122 17 -8 33 -17 36 -22 3 -5 8 -8 10
-7 5 2 37 -11 94 -36 22 -10 43 -19 48 -20 4 -1 8 -2 10 -4 1 -1 9 -3 17 -5 8
-1 44 -12 80 -24 63 -21 87 -27 140 -37 14 -2 48 -9 75 -15 28 -6 115 -12 195
-15 129 -3 173 0 309 20 39 6 161 45 161 52 0 3 -7 21 -15 40 -16 38 -14 77 6
100 10 12 -10 14 -132 15 -242 1 -454 9 -644 25 -38 3 -90 7 -115 8 l-45 1 3
-37 c2 -33 0 -38 -18 -38 -12 0 -20 7 -20 17 0 9 -3 14 -6 10 -3 -3 -14 2 -24
11 -34 31 -50 43 -50 38 0 -3 -12 -1 -26 4 -29 11 -114 24 -161 25 -18 0 -33
4 -33 9 0 5 -2 7 -6 4 -3 -3 -21 -2 -40 2 -18 4 -34 5 -34 1z"/>
<path d="M8150 152 c0 -26 44 -69 85 -82 56 -18 146 -18 212 0 34 9 65 14 69
11 4 -3 5 0 2 8 -2 8 -11 16 -19 17 -7 2 -39 10 -69 18 -62 17 -123 26 -191
31 -26 2 -56 6 -68 10 -16 5 -21 2 -21 -13z"/>
</g>
</svg>
